<svg width="1171" height="499" viewBox="0 0 1171 499" fill="none" xmlns="http://www.w3.org/2000/svg">
<path d="M989.375 145H1000.62L1019.38 146.25L1038.75 150L1053.75 154.375L1067.5 160L1077.5 165L1088.12 170.625L1095 175L1102.5 180.625L1108.75 186.25L1113.75 190.625L1123.12 199.375L1128.75 205.625L1135.62 214.375L1142.5 224.375L1147.5 232.5L1153.75 244.375L1161.25 263.125L1166.25 280L1169.38 300L1170.62 316.25V326.25L1168.75 344.375L1166.25 358.75L1163.75 368.125L1158.75 383.125L1151.88 398.125L1146.25 408.75L1138.75 420.625L1130.62 431.25L1123.75 439.375L1113.12 450L1104.38 456.875L1096.88 462.5L1087.5 468.75L1077.5 474.375L1063.12 481.25L1048.12 486.875L1031.88 491.25L1021.88 493.125H1004.38L986.25 496.25L974.375 497.5L961.25 498.125H945L931.875 497.5L915 495L899.375 491.25L885.625 487.5L885 486.25L874.375 482.5L866.25 478.75L860 475.625L859.375 474.375L855.625 473.125L845.625 467.5V466.25L843.125 465.625L841.25 463.75L834.375 458.75L826.875 453.125L817.5 444.375L806.25 433.125L801.875 428.125L796.25 421.875L791.25 415L789.375 413.125L788.125 410L786.25 408.125L785.625 406.25H784.375L783.125 401.875H781.875L780.625 397.5L779.375 396.875L778.125 393.125L776.875 392.5L776.25 388.75H775L773.125 383.125L771.875 381.875L771.25 376.875H769.375L768.75 371.25L766.875 370L764.375 361.875L760 346.25L756.875 330L755 313.75V276.875H824.375L826.875 275.625L827.5 269.375L831.25 257.5L836.875 244.375L843.125 232.5L849.375 222.5L855 214.375L860 208.125L867.5 199.375L877.5 189.375L884.375 183.75L895 175.625L908.75 166.875L926.875 158.125L932.5 156.25H936.875V165L935.625 182.5L935 203.75V237.5L935.625 251.25L936.875 258.125L939.375 261.875L941.25 263.125H949.375L955.625 260L958.75 255.625V247.5L956.875 235.625V195L959.375 174.375L961.875 155L963.125 149.375L969.375 146.25L971.875 145.625L989.375 145Z" fill="#DCCDC1"/>
<path d="M826.25 276.25L826.875 277.5L914.375 276.875H989.375L1152.5 277.5L1153.12 288.125V312.5L1151.25 329.375L1148.12 345.625L1143.75 360.625L1138.75 374.375L1131.88 389.375L1125 402.5L1116.88 414.375L1110.62 422.5L1105 429.375L1099.38 435.625L1093.12 442.5L1088.12 446.875L1081.88 452.5L1071.25 460.625L1062.5 466.875L1050 474.375L1040.62 479.375L1026.25 485.625L1010.62 490.625L1026.25 491.875V492.5L1018.12 493.125H1004.38L986.25 496.25L974.375 497.5L961.25 498.125H945L931.875 497.5L915 495L899.375 491.25L885.625 487.5L885 486.25L874.375 482.5L866.25 478.75L860 475.625L859.375 474.375L855.625 473.125L845.625 467.5V466.25L843.125 465.625L841.25 463.75L834.375 458.75L826.875 453.125L817.5 444.375L806.25 433.125L801.875 428.125L796.25 421.875L791.25 415L789.375 413.125L788.125 410L786.25 408.125L785.625 406.25H784.375L783.125 401.875H781.875L780.625 397.5L779.375 396.875L778.125 393.125L776.875 392.5L776.25 388.75H775L773.125 383.125L771.875 381.875L771.25 376.875H769.375L768.75 371.25L766.875 370L764.375 361.875L760 346.25L756.875 330L755 313.75V276.875H824.375L826.25 276.25ZM823.75 306.25L821.25 308.125H820.625V335.625L823.75 356.875L827.5 371.875L833.75 388.125L841.875 405L850 417.5L853.125 420.625L860 428.75L864.375 433.75L868.75 438.125L875.625 443.75L881.25 448.75L886.25 452.5L888.75 453.75L889.375 456.25L897.5 460L908.75 463.75L917.5 466.25L931.875 468.75L941.875 469.375H966.25L979.375 468.125L995 465L1011.88 460L1028.12 453.125L1040.62 446.25L1051.88 438.75L1062.5 430.625L1070 423.75L1075 419.375L1083.75 410L1090.62 401.25L1097.5 391.875L1105 378.75L1111.88 364.375L1117.5 348.75L1121.25 333.75L1123.75 316.875L1124.38 306.25H823.75Z" fill="#C39966"/>
<path d="M590 132.5L593.125 135.625L600 143.75L603.75 148.75L604.375 151.25L598.75 155L591.875 160.625L581.25 169.375L570.625 177.5L564.375 182.5L556.25 188.75L551.25 192.5L540.625 200.625L532.5 207.5L525 213.125L515 221.25L510.625 223.75L528.75 224.375H591.25L603.75 225L614.375 228.125L620.625 231.25L628.75 238.75L633.125 246.25L635 250.625L635.625 251.875L636.875 276.25V295.625L636.25 321.25L516.875 321.875H438.75L429.375 320.625L420 316.875L411.25 312.5L410.5 312L409.5 311L407.682 309.5L406 308L403 310L401 312L400 313L398 314.5L396 316L393.75 317.5L385 320.625L376.25 321.875L166.25 321.25L165.625 308.75V135.625L166.25 134.375H183.125L188.125 135.625L188.75 137.5V298.75H310V206.875L263.125 207.5L257.5 209.375L253.125 210.625L246.25 216.25L241.25 223.125L238.125 231.25L237.5 240L239.375 251.25L242.5 256.875L247.5 263.75L254.375 268.75L261.875 271.875L269.375 273.125L278.125 272.5L286.25 270L294.375 265L299.375 260.625H300V283.125L298.125 285L290.625 288.75L284.375 290.625L278.75 291.25H266.875L256.25 290L248.75 287.5L240 281.875L233.75 276.25L229.375 271.875L223.75 262.5L221.25 256.25L220 252.5L218.75 250V230.625L222.5 219.375L226.875 210.625L230.625 205.625L235 200L241.875 195.625L246.875 192.5L258.75 188.75L261.875 188.125L274.375 187.5H327.5V292.5L328.125 298.75L380.625 298.125L382.5 297.5L384 297L386.5 295.5L388 294.5L389.5 293.5L390.5 292.5L391.25 290.625L393.75 285L394.375 275.625L395 223.75H418.75V265.625L419.375 280.625L421.25 285.625L423.75 291.875L426.875 295L430.625 296.875L435 298.125L613.125 298.75L612.5 262.5L611.25 251.875L609.5 250.625L606.25 249.375L598.125 248.125L553.75 247.5H475L471.25 245.625L469.375 238.75V231.25L470.625 226.875L472 225L474.375 222.5L481.875 216.25L486.25 213.125L487.5 212L489 211L491.25 209.375L499.375 202.5L502.5 200.625L511.875 193.125L521.875 185.625L530 178.75L536.875 173.125L540.625 170.625L556.25 158.125L559.375 156.25L564.375 151.875L575 143.75L585 135.625L590 132.5Z" fill="#C39966"/>
<path d="M1098.75 0H1123.12L1141.88 0.625L1148.75 4.375L1150.62 8.75L1150 18.125L1148.12 25.625L1143.12 40.625L1141.88 43.125L1141 45.5L1140 47.5L1139 50L1138 53.0857L1136.5 57L1135.5 60L1134 63L1133 64.5L1131.5 66L1130.5 67.5L1128.75 70L1128 71L1126.25 73.125L1125.5 74L1123.75 76.875L1118.12 83.125L1113.75 88.125L1105.62 96.25L1099.38 101.25L1097.5 103.125L1095.5 104.5L1093.75 105.625L1092 107L1090.62 108.125L1088.5 109.5L1086.88 110.625L1086 111L1084.38 112L1082.5 113.125L1079.5 114.5L1077.5 115.5L1075 116.5L1072.5 117.5L1069.38 118.75L1068 119.5L1066.88 120L1050.62 125L1036.25 127.5L1030 128.125H1008.12L1005.62 124.375L1004.38 120V115L1006.25 109.375L1009.38 107.5L1010.62 106.875L1034.38 105.625L1053.12 101.25L1059.38 98.75L1067.5 96.25L1069 95.5L1071 94.5L1074 93L1076.88 91.25L1078.75 89.375L1085.62 84.375L1093.75 77.5L1098.75 73.125L1101.25 69.375L1106.88 63.125L1111.5 57.5L1113.5 54.5L1114.38 53.0857L1115 51.875L1116 50L1116.88 48.125L1118 45L1119.38 41.875L1120.5 40L1121.88 36.875L1123.12 30.625L1123.75 29.375V25L1122.5 21.25L1120.62 20.625L1111 21.5L1106.25 21.875L1090.62 23.125L1068.12 26.25L1051.25 30L1040.62 33.125L1033.75 35.625L1028.75 38.125L1024.38 40L1019.5 43L1015 45.625L1011.88 47.5L1008.75 50.625L999.375 59.375L991.875 67.5L986.875 74.375L983.5 80L981.5 83.5L979 88L975.5 94L972.757 100.625L971 105.5L969.375 111.875L968 118.75L966.875 125.625L963.75 145.625L961.25 164.375L958.75 185L957.5 195V235.625L959.375 247.5V255.625L955 261.25L949.375 263.75H941.25L937.5 260.625L935.625 255.625L935 251.25L934.375 237.5V203.75L935 182.5L936.875 155L939.375 134.375L942.5 118.75L943.75 115.625L945.5 107.5L948 101L949 98.5L950 96L951 93.5L952 91.5L953.75 88.75L955 85.5L956.5 82.5L957.5 80L959 78L960 76L961 74.5L962.5 71.25L967.5 64.375L973.75 55.625L978.125 51.25L982.5 46.25L990 38.75L996.875 33.125L1004.38 27.5L1010 24.375L1009.71 24.5339L1014.5 21.5L1015.62 20.625L1024.38 16.25L1030 14.375L1035.62 11.875L1040.62 10L1044.38 8.75L1058.75 4.375L1075.62 1.875L1081.88 0.625L1098.75 0Z" fill="#04A394"/>
<path d="M70 224.375H81.875L95 227.5L112.5 234.375L120 237.5L122.5 240.625L117.5 246.875L113.75 253.75L110 259.375L106.875 258.75L92.5 251.875L85.625 249.375L78.75 248.125H66.875L59.375 250L53.125 253.75L48.75 259.375L46.25 264.375L44.375 269.375V276.25L46.875 286.875L51.25 293.75L56.25 298.125L132.5 298.75V321.25L131.875 321.875L48.75 322.5L23.125 324.375L16.25 325H1.875L0 307.5V303.125L26.25 300L22.5 280.625V271.875L23.125 271.25L23.75 263.125L27.5 252.5L31.25 246.25L36.25 240L41.25 235L47.5 230.625L53.125 227.5L63.125 225L70 224.375Z" fill="#C39966"/>
<path d="M518.125 381.875H581.25V479.375L580.625 480.625H566.25L565.625 480V396.875L518.125 397.5L513.75 399.375L508.75 400.625L506.25 401.875L500 406.875L496.25 411.25L491.25 421.25L490.625 425V436.25L491.875 442.5L494.375 448.75L496.875 452.5L502.5 458.75L509.375 463.125L515.625 465.625L523.125 466.875H529.375L536.875 465.625L546.25 460.625L550.625 456.875H552.5L553.125 458.125V472.5L551.25 475.625L547.5 478.125L540 481.25L533.125 482.5H518.125L509.375 480.625L502.5 477.5L500 476.25L496.25 473.75L491.875 470.625L486.25 463.75L481.875 458.75L477.5 450L475.625 444.375L474.375 436.25L475 425.625L475.625 417.5L477.5 412L478.5 410L479.5 408L481.25 405L482.5 403.5L483.75 401.875L490.625 393.75L495 390L498.125 388.125L500 387L502.5 385.625L506.5 384L510 383.125L518.125 381.875Z" fill="#04A394"/>
<path d="M61.25 340.625H75.625V414.375L101.25 413.75L114.375 411.25L121.875 406.875L127.5 401.875L131.875 395.625L135 386.875L136.875 382.5L137.5 381.875H151.875V386.875L150 392.5L148.75 397.5L143.75 406.25L138.125 412.5L134.375 416.875L128.125 421.25L125 423.125L116.875 426.875H115L117.5 430.625L124.375 438.125L128.75 443.125L135.625 450.625L141.875 457.5L147.5 464.375L155 472.5L161.875 480V480.625H143.125L132.5 470L126.875 463.125L120 456.25L114.375 449.375L106.875 441.25L101.25 434.375L96.25 430H75.625V480.625H60.625V341.25L61.25 340.625Z" fill="#04A394"/>
<path d="M670.625 135H692.5L693.125 135.625L693.75 238.125L694.375 285.625V321.875H670.625V135Z" fill="#C39966"/>
<path d="M333.75 378.125H340.625L350 379.375L359.375 382.5L366.875 386.25L373.75 391.875L375.625 393.75L374.375 396.25L369.375 401.25L365.625 404.375L363.125 403.125L354.375 397.5L346.25 395L341.25 394.375H335L327.5 395.5L325 396.25L319.5 398L317.5 398.75L314 400L312.5 401.25L307.5 405.625L305 408L303.125 410.625L301.5 413.5L300.625 415.625L299.375 421.25L361.875 421.875V436.25H336.875H329.375L300.625 436.875L298.75 437.5L300.625 446.875L305 453.75L310 459.375L317.5 463.75L327.5 466.875L332.5 468.125H341.875L352.5 465.625L359.375 461.875L365 456.875L369.375 460.625L373.75 465L376.25 466.875L375 469.375L372.5 472.5L371 474L368.75 475.625L367 476.5L365 477.5L359.375 480L350 482.5L346.25 483.125H328.75L318.75 481.25L308.125 476.875L301.25 471.875L295 466.25L290.625 460.625L285.625 450.625L282.5 440L281.875 436.25V425.625L283.75 416.875L286.25 409.375L287 407.5L288.75 405L293.125 398.125L301.875 389.375L309.375 385L316.875 381.875L325 379.375L333.75 378.125Z" fill="#04A494"/>
<path d="M184.375 357.5H201.25V381.25H260.625L261.25 396.875H201.25V416.875L201.875 451.875L205.625 459.375L210.625 464.375L212.5 465.625L219.375 466.875H228.125L232 466.5L236 465.5L238.5 464L240 463L241.5 462L243.125 460.625L245.625 455.625L248.125 444.375H263.125V453.125L260.625 463.125L259.5 465L258 467L256.5 469L255 470.625L251.875 473.75L246.875 477.5L240.625 480.625L231.25 482.5H215.625L208.125 480.625L201.25 476.875L197.5 474.375L194.375 471.875L193 470.5L191.25 468.125L188.75 463.75L188 463L187.5 462L185 453.125L184.375 396.875H165.625L165 382.5L165.625 381.875L185 381.25L184.375 357.5Z" fill="#04A495"/>
<path d="M440 338.125H448.125L455 339.375L458.75 341.25L460 343.125L460.625 347.5V355.625L451.875 355L448.75 354.375H441.25L438 354.5L432.5 355.5L431 356.5L430 357.5L427.5 360L426.5 361L425 363.125L422.5 366.875L421.25 370.625L420.625 381.875H455V394.375L454.375 395H420.625L421.25 480.625H405.625V395H386.875V381.875H405.625V371.25L406.875 363.125L408.75 360L412.5 353.125L416.875 348.125L420 345.625L422 344L423.75 343.125L426.25 341.723L428.75 340.625L435 338.75L440 338.125Z" fill="#04A494"/>
<path d="M13.125 386.875H28.75L28.125 480.625H13.125V386.875Z" fill="#04A495"/>
<path d="M681.25 333.75H690.625L700 336.875L706.875 340L707.5 342.5L705 343.75L704.375 347.5L702.5 350L698.75 349.375L692.5 346.25L687.5 345.625H680L675 349.375L673.125 351.875V358.75L672.5 362.5L675 363.125V366.875L711.875 367.5L712.5 378.75L668.75 379.375L653.125 380L651.875 372.5L651.25 370L662.5 368.75L663.125 348.75L665 346.25L666.875 342.5L669.375 339.375L676.875 335L681.25 333.75Z" fill="#C39966"/>
<path d="M273.125 151.25L297.5 151.875V175.625H273.125V151.25Z" fill="#C39966"/>
<path d="M409.375 167.5H433.125L433.75 191.875H409.375V167.5Z" fill="#C39966"/>
<path d="M15 340.625H26.25L28.125 341.875V361.875H13.75L13.125 360.625L13.75 341.25L15 340.625Z" fill="#06A394"/>
<path d="M372.5 167.5H396.875L396.25 174.375H395.625L395 169.375H373.125L374.375 186.25L375.625 190.625L395 190L395.625 178.75H396.25V191.875H378.125L372.5 191.25L371.875 168.125L372.5 167.5Z" fill="#CAA170"/>
<rect x="372" y="167" width="25" height="25" fill="#C39966"/>
</svg>
